HIERARCHY
ROOT hip
{
  OFFSET 0 0 0
  CHANNELS 6 Xposition Yposition Zposition Zrotation Yrotation Xrotation
  JOINT abdomen
  {
    OFFSET 0 20.6881 -0.73152
    CHANNELS 3 Zrotation Xrotation Yrotation
    JOINT chest
    {
      OFFSET 0 11.7043 -0.48768
      CHANNELS 3 Zrotation Xrotation Yrotation
      JOINT neck
      {
        OFFSET 0 22.1894 -2.19456
        CHANNELS 3 Zrotation Xrotation Yrotation
        JOINT head
        {
          OFFSET -0.24384 7.07133 1.2192
          CHANNELS 3 Zrotation Xrotation Yrotation
          JOINT leftEye
          {
            OFFSET 4.14528 8.04674 8.04672
            CHANNELS 3 Zrotation Xrotation Yrotation
            End Site
            {
              OFFSET 1 0 0
            }
          }
          JOINT rightEye
          {
            OFFSET -3.6576 8.04674 8.04672
            CHANNELS 3 Zrotation Xrotation Yrotation
            End Site
            {
              OFFSET 1 0 0
            }
          }
        }
      }
      JOINT rCollar
      {
        OFFSET -2.68224 19.2634 -4.8768
        CHANNELS 3 Zrotation Xrotation Yrotation
        JOINT rShldr
        {
          OFFSET -8.77824 -1.95073 1.46304
          CHANNELS 3 Zrotation Xrotation Yrotation
          JOINT rForeArm
          {
            OFFSET -28.1742 -1.7115 0.48768
            CHANNELS 3 Zrotation Xrotation Yrotation
            JOINT rHand
            {
              OFFSET -22.5879 0.773209 7.07136
              CHANNELS 3 Zrotation Xrotation Yrotation
              JOINT rThumb1
              {
                OFFSET -1.2192 -0.487915 3.41376
                CHANNELS 3 Zrotation Xrotation Yrotation
                JOINT rThumb2
                {
                  OFFSET -3.37035 -0.52449 3.41376
                  CHANNELS 3 Zrotation Xrotation Yrotation
                  End Site
                  {
                    OFFSET -1.78271 -1.18214 1.43049
                  }
                }
              }
              JOINT rIndex1
              {
                OFFSET -7.75947 0.938293 5.60832
                CHANNELS 3 Zrotation Xrotation Yrotation
                JOINT rIndex2
                {
                  OFFSET -2.54057 -0.884171 1.56538
                  CHANNELS 3 Zrotation Xrotation Yrotation
                  End Site
                  {
                    OFFSET -1.62519 -0.234802 1.16502
                  }
                }
              }
              JOINT rMid1
              {
                OFFSET -8.24714 1.18213 3.41376
                CHANNELS 3 Zrotation Xrotation Yrotation
                JOINT rMid2
                {
                  OFFSET -3.10165 -0.590103 1.0647
                  CHANNELS 3 Zrotation Xrotation Yrotation
                  End Site
                  {
                    OFFSET -2.48547 -0.328903 0.83742
                  }
                }
              }
              JOINT rRing1
              {
                OFFSET -8.82822 0.546677 1.51678
                CHANNELS 3 Zrotation Xrotation Yrotation
                JOINT rRing2
                {
                  OFFSET -2.60934 -0.819778 -0.0198488
                  CHANNELS 3 Zrotation Xrotation Yrotation
                  End Site
                  {
                    OFFSET -2.33842 -0.294052 0.168128
                  }
                }
              }
              JOINT rPinky1
              {
                OFFSET -8.27202 -0.0477905 -0.4584
                CHANNELS 3 Zrotation Xrotation Yrotation
                JOINT rPinky2
                {
                  OFFSET -1.82734 -0.647385 -0.700984
                  CHANNELS 3 Zrotation Xrotation Yrotation
                  End Site
                  {
                    OFFSET -1.69225 -0.51767 -0.607171
                  }
                }
              }
            }
          }
        }
      }
      JOINT lCollar
      {
        OFFSET 2.68224 19.2634 -4.8768
        CHANNELS 3 Zrotation Xrotation Yrotation
        JOINT lShldr
        {
          OFFSET 8.77824 -1.95073 1.46304
          CHANNELS 3 Zrotation Xrotation Yrotation
          JOINT lForeArm
          {
            OFFSET 28.1742 -1.7115 0.48768
            CHANNELS 3 Zrotation Xrotation Yrotation
            JOINT lHand
            {
              OFFSET 22.5879 0.773209 7.07136
              CHANNELS 3 Zrotation Xrotation Yrotation
              JOINT lThumb1
              {
                OFFSET 1.2192 -0.487915 3.41376
                CHANNELS 3 Zrotation Xrotation Yrotation
                JOINT lThumb2
                {
                  OFFSET 3.37035 -0.52449 3.41376
                  CHANNELS 3 Zrotation Xrotation Yrotation
                  End Site
                  {
                    OFFSET 1.78271 -1.18214 1.43049
                  }
                }
              }
              JOINT lIndex1
              {
                OFFSET 7.75947 0.938293 5.60832
                CHANNELS 3 Zrotation Xrotation Yrotation
                JOINT lIndex2
                {
                  OFFSET 2.54057 -0.884171 1.56538
                  CHANNELS 3 Zrotation Xrotation Yrotation
                  End Site
                  {
                    OFFSET 1.62519 -0.234802 1.16502
                  }
                }
              }
              JOINT lMid1
              {
                OFFSET 8.24714 1.18213 3.41376
                CHANNELS 3 Zrotation Xrotation Yrotation
                JOINT lMid2
                {
                  OFFSET 3.10165 -0.590103 1.0647
                  CHANNELS 3 Zrotation Xrotation Yrotation
                  End Site
                  {
                    OFFSET 2.48547 -0.328903 0.83742
                  }
                }
              }
              JOINT lRing1
              {
                OFFSET 8.82822 0.546677 1.51678
                CHANNELS 3 Zrotation Xrotation Yrotation
                JOINT lRing2
                {
                  OFFSET 2.60934 -0.819778 -0.0198488
                  CHANNELS 3 Zrotation Xrotation Yrotation
                  End Site
                  {
                    OFFSET 2.33842 -0.294052 0.168128
                  }
                }
              }
              JOINT lPinky1
              {
                OFFSET 8.27202 -0.0477905 -0.4584
                CHANNELS 3 Zrotation Xrotation Yrotation
                JOINT lPinky2
                {
                  OFFSET 1.82734 -0.647385 -0.700984
                  CHANNELS 3 Zrotation Xrotation Yrotation
                  End Site
                  {
                    OFFSET 1.69225 -0.51767 -0.607171
                  }
                }
              }
            }
          }
        }
      }
    }
  }
  JOINT rButtock
  {
    OFFSET -8.77824 4.35084 1.2192
    CHANNELS 3 Zrotation Xrotation Yrotation
    JOINT rThigh
    {
      OFFSET 0 -1.70687 -2.19456
      CHANNELS 3 Zrotation Xrotation Yrotation
      JOINT rShin
      {
        OFFSET 0 -36.8199 0.73152
        CHANNELS 3 Zrotation Xrotation Yrotation
        JOINT rFoot
        {
          OFFSET 0.73152 -45.1104 -5.12064
          CHANNELS 3 Zrotation Xrotation Yrotation
          End Site
          {
            OFFSET -1.1221 -3.69964 12.103
          }
        }
      }
    }
  }
  JOINT lButtock
  {
    OFFSET 8.77824 4.35084 1.2192
    CHANNELS 3 Zrotation Xrotation Yrotation
    JOINT lThigh
    {
      OFFSET 0 -1.70687 -2.19456
      CHANNELS 3 Zrotation Xrotation Yrotation
      JOINT lShin
      {
        OFFSET 0 -36.8199 0.73152
        CHANNELS 3 Zrotation Xrotation Yrotation
        JOINT lFoot
        {
          OFFSET -0.73152 -45.1104 -5.12064
          CHANNELS 3 Zrotation Xrotation Yrotation
          End Site
          {
            OFFSET 1.1221 -3.69964 12.103
          }
        }
      }
    }
  }
}
MOTION
Frames:	4
Frame Time:	0.00833333
288.157 84.8429 -38.0791 0.0 0.0 0.0 -0.257805 -0.00149939 -0.00737507 -0.0711633 -0.00234959 -0.0123289 -4.58124e-15 -1.59028e-15 -4.65902e-17 -1.38466e-14 3.18055e-15 -1.22687e-16 -0.0 0.0 0.0 -0.0 0.0 0.0 -2.28742e-15 3.88251e-19 1.49089e-16 -4.57614e-14 -8.69683e-17 1.98785e-16 -8.31168e-13 2.52457e-13 -3.18055e-15 -9.56739e-12 -2.47064e-13 -8.90555e-14 -2.25581e-11 1.1638e-14 -1.94014e-13 -3.89586e-11 1.90833e-14 -3.4509e-13 -2.25529e-11 1.31198e-14 -2.03556e-13 7.73091 5.47488 0.417314 -2.25582e-11 1.19271e-14 -2.00375e-13 2.90554 0.965183 0.102902 -2.2551e-11 1.19271e-14 -2.01965e-13 10.2786 0.731801 0.0259123 -2.25635e-11 1.23246e-14 -2.00375e-13 2.22167 -0.733487 -0.20892 -2.28477e-15 1.94126e-19 -1.49089e-16 -5.08838e-14 -4.84538e-16 -1.59028e-15 -8.37679e-13 -2.52854e-13 1.27222e-14 -9.56012e-12 2.35088e-13 -1.04958e-13 -2.25581e-11 -3.49273e-14 -2.06736e-13 -3.89542e-11 -5.725e-14 -3.48271e-13 -2.25652e-11 -3.49861e-14 -1.97194e-13 -7.73091 5.47488 -0.417314 -2.25587e-11 -3.44891e-14 -2.06736e-13 -2.90554 0.965183 -0.102902 -2.25642e-11 -3.45885e-14 -2.0117e-13 -10.2786 0.731801 -0.0259123 -2.25545e-11 -3.33958e-14 -2.03556e-13 -2.22167 -0.733487 0.20892 -2.03217e-16 0.0 -3.88251e-19 0.28853 -2.74965 -0.0315102 -0.00677203 -0.571697 -0.0593187 -0.483449 3.32101 0.122368 2.03217e-16 0.0 3.88251e-19 -0.681405 -3.7593 0.0561648 0.0038744 1.25717 0.0320716 0.487164 2.50184 -0.106259
281.541 83.5505 -43.7183 -54.3757 -87.9046 52.825 -0.1918 0.846699 0.149286 0.0362284 0.730528 0.0119402 -0.825275 1.69214 -0.832212 3.43488 -6.19266 -0.881147 -0.0 0.0 0.0 -0.0 0.0 0.0 -8.87111e-16 -9.91371e-14 5.36952e-16 22.6183 5.66409 -0.174974 -4.3445 -1.99945 6.75791 0.00354179 -1.32105 -0.185483 -1.6888e-10 4.4863e-10 2.38339e-09 -2.94166e-10 7.74183e-10 4.12045e-09 -1.68876e-10 4.48631e-10 2.38338e-09 7.73091 5.47488 0.417314 -1.6888e-10 4.48631e-10 2.38338e-09 2.90554 0.965183 0.102902 -1.68875e-10 4.4863e-10 2.38339e-09 10.2786 0.731801 0.0259123 -1.68884e-10 4.48631e-10 2.38339e-09 2.22167 -0.733487 -0.20892 -9.65685e-16 -9.91371e-14 1.77431e-16 -22.3733 5.54101 -1.06857 3.79149 -1.64557 -6.00305 -0.0119583 -2.42625 0.339884 -3.79761e-10 4.4233e-10 -2.75272e-09 -6.45709e-10 7.63099e-10 -4.7597e-09 -3.79768e-10 4.4233e-10 -2.75271e-09 -7.73091 5.47488 -0.417314 -3.79762e-10 4.42329e-10 -2.75273e-09 -2.90554 0.965183 -0.102902 -3.79769e-10 4.4233e-10 -2.75272e-09 -10.2786 0.731801 -0.0259123 -3.79758e-10 4.42332e-10 -2.75272e-09 -2.22167 -0.733487 0.20892 -2.03217e-16 0.0 -3.88251e-19 1.07794 -5.23149 -0.47358 0.0270884 9.02284 0.12109 -0.868 -3.8678 -2.74605 2.03217e-16 0.0 3.88251e-19 -0.29152 -5.2631 1.17088 -0.0114574 8.65032 -0.0927187 0.73041 -2.03386 2.38042
281.54 83.5508 -43.7183 -54.4552 -87.9105 52.9034 -0.126973 1.74283 0.314988 0.149209 1.5051 0.0376173 -1.64443 3.47933 -1.71444 6.85317 -12.7333 -1.84782 -0.0 0.0 0.0 -0.0 0.0 0.0 1.1084e-15 -1.77493e-13 1.23309e-15 46.5669 11.6523 -0.366366 -8.42805 -4.02031 13.928 -0.00203526 -2.7231 -0.382675 -3.4127e-10 9.52743e-10 5.04458e-09 -5.9468e-10 1.64413e-09 8.72117e-09 -3.41266e-10 9.52744e-10 5.04458e-09 7.73091 5.47488 0.417314 -3.41269e-10 9.52744e-10 5.04458e-09 2.90554 0.965183 0.102902 -3.41266e-10 9.52743e-10 5.04458e-09 10.2786 0.731801 0.0259123 -3.41272e-10 9.52744e-10 5.04459e-09 2.22167 -0.733487 -0.20892 9.41634e-16 -1.77493e-13 8.04457e-16 -45.7959 11.3891 -2.23213 7.42607 -3.32439 -12.3636 0.0067995 -4.98744 0.700742 -7.87283e-10 9.34685e-10 -5.83026e-09 -1.33815e-09 1.61247e-09 -1.00811e-08 -7.87289e-10 9.34684e-10 -5.83024e-09 -7.73091 5.47488 -0.417314 -7.87284e-10 9.34683e-10 -5.83026e-09 -2.90554 0.965183 -0.102902 -7.87293e-10 9.34686e-10 -5.83025e-09 -10.2786 0.731801 -0.0259123 -7.87279e-10 9.34688e-10 -5.83025e-09 -2.22167 -0.733487 0.20892 -2.03217e-16 0.0 -3.88251e-19 1.87034 -7.85461 -0.945643 -0.00595951 19.1656 0.326854 -2.06902 -11.4179 -5.88158 2.03217e-16 0.0 3.88251e-19 0.184523 -6.84848 2.35589 0.00867265 16.4657 -0.231873 1.41742 -6.80797 5.04002
281.535 83.5534 -43.7182 -54.6624 -87.9249 53.0864 -0.0737167 2.54302 0.463014 0.249148 2.19628 0.0605199 -2.32792 5.07211 -2.50536 9.70678 -18.5599 -2.7723 -0.0 0.0 0.0 -0.0 0.0 0.0 1.91351e-15 -2.97412e-13 1.31268e-15 67.9627 16.9916 -0.546203 -11.6455 -5.66526 20.3652 -0.0150862 -3.96297 -0.557634 -4.61525e-10 1.34587e-09 7.15056e-09 -8.04581e-10 2.32251e-09 1.2362e-08 -4.61522e-10 1.34587e-09 7.15056e-09 7.73091 5.47488 0.417314 -4.61524e-10 1.34587e-09 7.15055e-09 2.90554 0.965183 0.102902 -4.61523e-10 1.34587e-09 7.15056e-09 10.2786 0.731801 0.0259123 -4.61526e-10 1.34587e-09 7.15056e-09 2.22167 -0.733487 -0.20892 1.67249e-15 -2.97412e-13 8.30469e-16 -66.4774 16.5994 -3.32964 10.356 -4.72036 -18.0651 0.0510737 -7.27773 1.02701 -1.09417e-09 1.32706e-09 -8.25776e-09 -1.85922e-09 2.28941e-09 -1.42784e-08 -1.09417e-09 1.32706e-09 -8.25774e-09 -7.73091 5.47488 -0.417314 -1.09417e-09 1.32706e-09 -8.25776e-09 -2.90554 0.965183 -0.102902 -1.09418e-09 1.32706e-09 -8.25775e-09 -10.2786 0.731801 -0.0259123 -1.09416e-09 1.32706e-09 -8.25775e-09 -2.22167 -0.733487 0.20892 -2.03217e-16 0.0 -3.88251e-19 2.54018 -10.1928 -1.37356 -0.10551 28.2109 0.54176 -3.87517 -18.053 -8.90542 2.03217e-16 0.0 3.88251e-19 0.665415 -8.25943 3.42128 0.0616426 23.4362 -0.369612 2.41157 -11.0181 7.48786
